HIERARCHY
ROOT Hips
{
	OFFSET 0.00 0.00 0.00
	CHANNELS 6 Xposition Yposition Zposition Xrotation Yrotation Zrotation
	JOINT Spine
	{
		OFFSET 0.00000 3.89993 0.00000
		CHANNELS 3 Xrotation Yrotation Zrotation
		JOINT Head
		{
			OFFSET 0.00000 16.77154 0.00000
			CHANNELS 3 Xrotation Yrotation Zrotation
			End Site
			{
				OFFSET 0.00000 4.52755 0.00000
			}
		}
		JOINT LeftShoulder
		{
			OFFSET 0.00000 13.13461 0.00000
			CHANNELS 3 Xrotation Yrotation Zrotation
			JOINT LeftArm
			{
				OFFSET 7.07023 0.00000 0.00000
				CHANNELS 3 Xrotation Yrotation Zrotation
				JOINT LeftForeArm
				{
					OFFSET 11.11520 0.00000 0.00000
					CHANNELS 3 Zrotation Yrotation Xrotation
					JOINT LeftHand
					{
						OFFSET 8.13953 0.00000 0.00000
						CHANNELS 3 Xrotation Yrotation Zrotation
						JOINT LeftHandThumb1
						{
							OFFSET 0.00000 0.00000 0.00000
							CHANNELS 3 Xrotation Yrotation Zrotation
							End Site
							{
								OFFSET 0.00000 0.00000 3.93700
							}
						}
						End Site
						{
							OFFSET 3.93700 0.00000 0.00000
						}
					}
				}
			}
		}
		JOINT RightShoulder
		{
			OFFSET 0.00000 13.13461 0.00000
			CHANNELS 3 Xrotation Yrotation Zrotation
			JOINT RightArm
			{
				OFFSET -7.07023 0.00000 0.00000
				CHANNELS 3 Xrotation Yrotation Zrotation
				JOINT RightForeArm
				{
					OFFSET -11.11520 0.00000 0.00000
					CHANNELS 3 Zrotation Yrotation Xrotation
					JOINT RightHand
					{
						OFFSET -8.13953 0.00000 0.00000
						CHANNELS 3 Xrotation Yrotation Zrotation
						JOINT RightHandThumb1
						{
							OFFSET 0.00000 0.00000 0.00000
							CHANNELS 3 Xrotation Yrotation Zrotation
							End Site
							{
								OFFSET 0.00000 0.00000 3.93700
							}
						}
						End Site
						{
							OFFSET -3.93700 0.00000 0.00000
						}
					}
				}
			}
		}
	}
	JOINT LeftUpLeg
	{
		OFFSET 3.86157 0.00000 0.00000
		CHANNELS 3 Xrotation Yrotation Zrotation
		JOINT LeftLeg
		{
			OFFSET 0.00000 -16.92429 0.00000
			CHANNELS 3 Xrotation Yrotation Zrotation
			JOINT LeftFoot
			{
				OFFSET 0.00000 -16.84146 0.00000
				CHANNELS 3 Xrotation Yrotation Zrotation
				JOINT LeftToeBase
				{
					OFFSET 0.00000 -1.33703 4.98985
					CHANNELS 3 Xrotation Yrotation Zrotation
					End Site
					{
						OFFSET 0.00000 0.00000 2.95275
					}
				}
			}
		}
	}
	JOINT RightUpLeg
	{
		OFFSET -3.86157 0.00000 0.00000
		CHANNELS 3 Xrotation Yrotation Zrotation
		JOINT RightLeg
		{
			OFFSET 0.00000 -16.92429 0.00000
			CHANNELS 3 Xrotation Yrotation Zrotation
			JOINT RightFoot
			{
				OFFSET 0.00000 -16.84146 0.00000
				CHANNELS 3 Xrotation Yrotation Zrotation
				JOINT RightToeBase
				{
					OFFSET 0.00000 -1.33703 4.98985
					CHANNELS 3 Xrotation Yrotation Zrotation
					End Site
					{
						OFFSET 0.00000 0.00000 2.95275
					}
				}
			}
		}
	}
}
MOTION
Frames: 17
Frame Time: 0.008333
 -6.8987 35.3405 -8.3179 11.2462 -3.0131 1.5807 -18.7394 10.7918 -2.2172 8.8150 -4.3662 4.0874 26.8396 18.6447 13.9658 -67.5122 -0.4007 -15.2218 -0.0000 -0.0256 13.0381 0.1996 1.5569 -7.3082 33.1476 26.2537 -0.0000 10.1933 -26.4038 -16.2245 -58.6493 -15.8937 15.1094 -0.0000 13.2734 51.7345 0.7131 -3.1296 12.8433 32.8623 -24.3270 0.0000 -2.2191 14.4996 0.3753 -3.8703 -0.0000 0.0000 -12.0903 26.6613 -2.2791 18.5038 -0.0000 -0.0000 -3.0118 -8.3281 -3.4492 -5.3381 0.0000 0.0000 -11.7411 -25.9628 -0.3191 19.5307 0.0000 -0.0000
 -6.9095 35.3387 -8.3032 11.2377 -3.0135 1.5799 -18.7406 10.8063 -2.2177 8.8524 -4.4123 4.0978 26.8117 18.6367 14.0094 -67.4152 -0.4265 -15.2607 -0.0000 0.0059 12.9351 0.1955 1.5271 -7.2950 33.1476 26.2537 -0.0000 10.2107 -26.3970 -16.2387 -58.6418 -15.8952 15.1197 0.0000 13.2798 51.6838 0.7195 -3.1538 12.8586 32.8623 -24.3270 -0.0000 -2.1881 14.5059 0.3909 -3.8744 -0.0000 -0.0000 -12.0872 26.6755 -2.2985 18.4927 0.0000 -0.0000 -2.9603 -8.2756 -3.4305 -5.3566 -0.0000 0.0000 -11.7876 -26.0133 -0.3659 19.5541 -0.0000 0.0000
 -6.9204 35.3368 -8.2884 11.2331 -3.0099 1.5729 -18.7458 10.7854 -2.2075 8.8882 -4.4544 4.0685 26.7960 18.6577 14.0158 -67.4393 -0.4350 -15.2886 -0.0000 0.0408 12.9015 0.1852 1.4670 -7.1959 33.1476 26.2537 -0.0000 10.2311 -26.3832 -16.2554 -58.7324 -15.8985 15.1275 -0.0000 13.2896 51.7152 0.7235 -3.1723 12.8543 32.8623 -24.3270 0.0000 -2.1627 14.5405 0.4117 -3.8769 0.0000 -0.0000 -12.0989 26.6446 -2.3088 18.5094 -0.0000 0.0000 -2.9116 -8.2131 -3.4063 -5.3753 0.0000 -0.0000 -11.8240 -26.0774 -0.4211 19.5812 0.0000 -0.0000
 -6.9291 35.3353 -8.2762 11.2370 -2.9977 1.5655 -18.7584 10.7796 -2.1929 8.9308 -4.4905 4.0516 26.7539 18.6254 14.0521 -67.3827 -0.4258 -15.2991 -0.0000 0.0708 12.7695 0.1751 1.4016 -7.1234 33.1476 26.2537 0.0000 10.2234 -26.3874 -16.2841 -58.7924 -15.8923 15.1260 -0.0000 13.2840 51.7498 0.7079 -3.1092 12.8328 32.8623 -24.3270 0.0000 -2.1547 14.5353 0.4307 -3.8718 -0.0000 -0.0000 -12.1024 26.6473 -2.3104 18.4796 -0.0000 0.0000 -2.8823 -8.1714 -3.3861 -5.3822 -0.0000 -0.0000 -11.8599 -26.1326 -0.4416 19.5663 0.0000 0.0000
 -6.9373 35.3337 -8.2627 11.2315 -2.9767 1.5547 -18.7661 10.7592 -2.1750 8.9749 -4.4788 4.0291 26.7498 18.5820 14.0566 -67.4585 -0.3748 -15.2750 0.0000 0.0167 12.7175 0.1866 1.5254 -6.9767 33.1476 26.2537 0.0000 10.2145 -26.4036 -16.3105 -58.7744 -15.8278 15.1498 -0.0000 13.2671 51.6772 0.7148 -3.1424 12.8223 32.8623 -24.3270 -0.0000 -2.1388 14.5490 0.4533 -3.8654 0.0000 -0.0000 -12.1170 26.6322 -2.3430 18.4654 0.0000 -0.0000 -2.8262 -8.0845 -3.3640 -5.4081 0.0000 0.0000 -11.8922 -26.2351 -0.4837 19.5633 -0.0000 0.0000
 -6.9459 35.3319 -8.2491 11.2313 -2.9436 1.5361 -18.7874 10.7348 -2.1513 9.0216 -4.4116 4.0148 26.7581 18.5374 14.0714 -67.4949 -0.3471 -15.2676 -0.0000 0.0099 12.5877 0.1874 1.5480 -6.9043 33.1476 26.2537 -0.0000 10.1742 -26.3964 -16.3688 -58.7506 -15.8072 15.1533 -0.0000 13.2616 51.6439 0.7093 -3.1219 12.8069 32.8623 -24.3270 0.0000 -2.1257 14.5338 0.4822 -3.8722 0.0000 0.0000 -12.1274 26.6351 -2.3558 18.4835 0.0000 -0.0000 -2.7908 -8.0481 -3.3387 -5.4031 -0.0000 -0.0000 -11.9233 -26.2838 -0.5030 19.5548 0.0000 0.0000
 -6.9547 35.3305 -8.2356 11.2396 -2.9182 1.5213 -18.8187 10.6937 -2.1355 9.0869 -4.4429 3.9719 26.7573 18.5393 14.0842 -67.5218 -0.3369 -15.2863 -0.0000 0.0073 12.4954 0.1913 1.5911 -6.8571 33.1476 26.2537 -0.0000 10.1293 -26.3634 -16.4081 -58.7277 -15.7592 15.1407 -0.0000 13.2567 51.6412 0.7059 -3.1027 12.8249 32.8623 -24.3270 -0.0000 -2.1208 14.5403 0.5069 -3.8759 -0.0000 0.0000 -12.1382 26.6185 -2.3687 18.4979 -0.0000 0.0000 -2.7631 -8.0151 -3.3123 -5.4054 0.0000 -0.0000 -11.9534 -26.3336 -0.5266 19.5348 -0.0000 0.0000
 -6.9623 35.3284 -8.2222 11.2404 -2.8842 1.5029 -18.8386 10.6578 -2.1079 9.1290 -4.4001 3.9383 26.7799 18.5398 14.0865 -67.6090 -0.3176 -15.3167 0.0000 0.0138 12.3592 0.1782 1.4839 -6.8468 33.1476 26.2537 0.0000 10.0788 -26.3506 -16.5002 -58.7625 -15.7939 15.1555 0.0000 13.3242 51.5816 0.7329 -3.1974 12.9179 32.8623 -24.3270 0.0000 -2.1085 14.5490 0.5336 -3.8828 -0.0000 0.0000 -12.1476 26.5860 -2.3650 18.5227 -0.0000 -0.0000 -2.7345 -8.0073 -3.2861 -5.3958 -0.0000 -0.0000 -11.9999 -26.3661 -0.5619 19.5401 -0.0000 0.0000
 -6.9690 35.3276 -8.2105 11.2469 -2.8589 1.5004 -18.8546 10.6112 -2.1022 9.1735 -4.4029 3.8904 26.7758 18.5435 14.0698 -67.6320 -0.3324 -15.3170 -0.0000 0.0265 12.2600 0.1713 1.4380 -6.7957 33.1476 26.2537 0.0000 10.0649 -26.3370 -16.5356 -58.7679 -15.7344 15.1639 -0.0000 13.2713 51.5822 0.7075 -3.1257 12.7610 32.8623 -24.3270 -0.0000 -2.0934 14.5574 0.5384 -3.9015 -0.0000 -0.0000 -12.1370 26.5776 -2.3298 18.5261 -0.0000 -0.0000 -2.7218 -7.9960 -3.2752 -5.3815 -0.0000 0.0000 -12.0391 -26.3960 -0.5932 19.5163 0.0000 -0.0000
 -6.9749 35.3269 -8.1986 11.2509 -2.8364 1.4947 -18.8766 10.5686 -2.0855 9.2327 -4.3804 3.8442 26.7501 18.5576 14.0976 -67.5505 -0.3211 -15.3648 -0.0000 0.0028 12.0565 0.1688 1.4235 -6.7646 33.1476 26.2537 0.0000 10.0846 -26.3259 -16.5633 -58.7060 -15.6596 15.1720 -0.0000 13.2941 51.5386 0.7144 -3.1413 12.8187 32.8623 -24.3270 -0.0000 -2.0719 14.5482 0.5490 -3.9261 0.0000 -0.0000 -12.1083 26.5757 -2.3607 18.4634 -0.0000 0.0000 -2.6970 -7.9575 -3.2615 -5.3817 -0.0000 -0.0000 -12.0685 -26.4611 -0.6216 19.5158 0.0000 -0.0000
 -6.9819 35.3263 -8.1870 11.2550 -2.7846 1.4801 -18.8974 10.5033 -2.0715 9.2794 -4.3447 3.8071 26.7545 18.5326 14.0806 -67.6319 -0.3034 -15.3464 -0.0000 -0.0072 11.9826 0.1775 1.5326 -6.6056 33.1476 26.2537 0.0000 10.0701 -26.3023 -16.6069 -58.6935 -15.6200 15.1618 -0.0000 13.3158 51.5361 0.7085 -3.1069 12.8525 32.8623 -24.3270 -0.0000 -2.0656 14.5314 0.5706 -3.9372 0.0000 -0.0000 -12.1054 26.5789 -2.4545 18.5074 -0.0000 -0.0000 -2.6774 -7.9969 -3.2377 -5.3700 -0.0000 -0.0000 -12.0996 -26.4720 -0.6344 19.5476 -0.0000 0.0000
 -6.9867 35.3255 -8.1760 11.2548 -2.7176 1.4848 -18.9072 10.4465 -2.0810 9.3257 -4.3431 3.7659 26.7415 18.5121 14.0817 -67.6644 -0.3093 -15.3599 0.0000 0.0132 11.8766 0.1711 1.4655 -6.6605 33.1476 26.2537 -0.0000 10.0815 -26.2938 -16.6347 -58.7403 -15.5927 15.1330 -0.0000 13.3238 51.5531 0.6990 -3.0712 12.8289 32.8623 -24.3270 -0.0000 -2.0700 14.5442 0.5719 -3.9151 0.0000 0.0000 -12.0943 26.5224 -2.5072 18.5029 -0.0000 0.0000 -2.6564 -8.0502 -3.2409 -5.3583 -0.0000 -0.0000 -12.1374 -26.4785 -0.6374 19.5142 0.0000 0.0000
 -6.9927 35.3248 -8.1658 11.2587 -2.6407 1.4757 -18.9197 10.3770 -2.0770 9.3568 -4.3202 3.7016 26.7159 18.4883 14.0776 -67.7088 -0.3140 -15.3718 0.0000 0.0060 11.8640 0.1686 1.4567 -6.6048 33.1476 26.2537 -0.0000 10.0364 -26.3010 -16.6989 -58.7293 -15.5610 15.1357 -0.0000 13.3534 51.5380 0.7035 -3.0931 12.8201 32.8623 -24.3270 -0.0000 -2.0724 14.4946 0.5878 -3.9136 0.0000 -0.0000 -12.0927 26.5031 -2.5404 18.4909 -0.0000 0.0000 -2.6270 -8.0903 -3.2238 -5.3685 0.0000 0.0000 -12.1600 -26.5230 -0.6673 19.5076 -0.0000 0.0000
 -6.9962 35.3242 -8.1551 11.2608 -2.5633 1.4757 -18.9333 10.2833 -2.0750 9.3784 -4.2455 3.6440 26.7323 18.4943 14.0457 -67.7552 -0.3231 -15.3823 -0.0000 0.0093 11.8650 0.1564 1.3359 -6.6767 33.1476 26.2537 0.0000 9.9960 -26.2832 -16.7691 -58.6894 -15.5031 15.1435 -0.0000 13.3854 51.4612 0.7265 -3.1806 12.8743 32.8623 -24.3270 -0.0000 -2.0723 14.4599 0.5891 -3.9089 -0.0000 -0.0000 -12.0815 26.4913 -2.5818 18.5063 0.0000 -0.0000 -2.6172 -8.1902 -3.2200 -5.3483 -0.0000 0.0000 -12.2058 -26.5052 -0.6903 19.4982 -0.0000 0.0000
 -7.0003 35.3240 -8.1459 11.2542 -2.4883 1.4847 -18.9269 10.2171 -2.1017 9.4086 -4.2799 3.6004 26.7123 18.4565 14.0400 -67.7930 -0.3240 -15.3658 0.0000 -0.0112 11.8040 0.1643 1.4246 -6.5809 33.1476 26.2537 -0.0000 9.9657 -26.2657 -16.8040 -58.7426 -15.4795 15.1098 0.0000 13.3726 51.5801 0.7104 -3.1174 12.8435 32.8623 -24.3270 0.0000 -2.0656 14.4251 0.5833 -3.8973 -0.0000 0.0000 -12.0616 26.4494 -2.5557 18.4818 -0.0000 0.0000 -2.5881 -8.2302 -3.2246 -5.3459 -0.0000 -0.0000 -12.2417 -26.5339 -0.7479 19.4742 0.0000 0.0000
 -7.0055 35.3236 -8.1358 11.2541 -2.4034 1.4741 -18.9283 10.1276 -2.1032 9.4112 -4.2836 3.5393 26.6976 18.4805 14.0460 -67.7767 -0.3365 -15.4265 0.0000 -0.0538 11.7555 0.1698 1.4981 -6.4670 33.1476 26.2537 0.0000 9.8963 -26.2701 -16.8893 -58.6496 -15.4497 15.1307 -0.0000 13.3830 51.4515 0.6692 -2.9638 12.7287 32.8623 -24.3270 0.0000 -2.0711 14.3864 0.5989 -3.8864 0.0000 -0.0000 -12.0406 26.4166 -2.6202 18.4629 0.0000 -0.0000 -2.5453 -8.2535 -3.2064 -5.3684 -0.0000 0.0000 -12.2550 -26.6091 -0.7715 19.4792 0.0000 -0.0000
 -7.0116 35.3227 -8.1270 11.2555 -2.3202 1.4637 -18.9306 10.0349 -2.1070 9.4163 -4.2650 3.4799 26.6952 18.4662 14.0282 -67.8291 -0.3275 -15.4003 -0.0000 -0.0736 11.9830 0.1611 1.3876 -6.6233 33.1476 26.2537 -0.0000 9.8559 -26.2665 -16.9663 -58.6147 -15.3972 15.1484 0.0000 13.3405 51.3888 0.6685 -2.9780 12.6574 32.8623 -24.3270 0.0000 -2.0800 14.3693 0.6141 -3.8826 -0.0000 -0.0000 -12.0360 26.3987 -2.6989 18.4540 -0.0000 0.0000 -2.4785 -8.1738 -3.1931 -5.4299 0.0000 -0.0000 -12.2651 -26.7564 -0.8167 19.4738 0.0000 -0.0000
